<svg width="36" height="41" viewBox="0 0 36 41" fill="none" xmlns="http://www.w3.org/2000/svg">
<path d="M4 22.5418V26.6252H32V22.5418H4ZM4 0.0834961H32C32.9625 0.0834961 33.7865 0.483322 34.4719 1.28298C35.1573 2.08263 35.5 3.04391 35.5 4.16683V26.6252C35.5 27.7481 35.1573 28.7094 34.4719 29.509C33.7865 30.3087 32.9625 30.7085 32 30.7085H25V40.9168L18 36.8335L11 40.9168V30.7085H4C3.0375 30.7085 2.21354 30.3087 1.52813 29.509C0.842708 28.7094 0.5 27.7481 0.5 26.6252V4.16683C0.5 3.04391 0.842708 2.08263 1.52813 1.28298C2.21354 0.483322 3.0375 0.0834961 4 0.0834961ZM4 16.4168H32V4.16683H4V16.4168Z" fill="black"/>
</svg>
